# xmcd
#
# Track frame offsets: 
#        150
#        20295
#        53408
#
# Disc length: 1049 seconds
#
# Revision: 0
# Processed by: cddbd v1.5.2PL0 Copyright (c) Steve Scherf et al.
# Submitted via: ExactAudioCopy v0.99pb3
#
DISCID=15041703
DTITLE=Rodgers Paul - Manchester 2011 (3)
DYEAR=2011
DGENRE=Rock
TTITLE0=Ride on Pony
TTITLE1=All Right now
TTITLE2=The Hunter
EXTD=
EXTT0=
EXTT1=
EXTT2=
PLAYORDER=
